<svg width="88" height="87" viewBox="0 0 88 87" fill="none" xmlns="http://www.w3.org/2000/svg">
<path d="M30.2289 0.0735474C29.2767 0.254211 28.2758 0.727844 27.3334 1.44073C25.2728 2.99835 24.1058 5.30304 24.101 7.78839C24.101 9.59503 24.5355 11.3187 25.3754 12.803C25.5072 13.0423 25.6049 13.2571 25.5902 13.2816C25.5707 13.3109 25.4242 13.3304 25.2582 13.3304C25.0922 13.3304 24.7162 13.3743 24.4183 13.4232C22.2699 13.7943 20.849 14.9564 19.1986 17.6956C17.6215 20.3079 16.4496 23.9847 15.8539 28.1985C15.5707 30.1907 15.4974 31.4114 15.4779 34.2484L15.4633 36.7825L15.351 36.9046C14.9066 37.3782 13.1488 37.6273 11.6889 37.4222C11.0785 37.3392 10.9613 37.3148 9.42811 36.9388C7.31385 36.4212 6.74256 36.3089 5.75135 36.221C5.18983 36.1722 5.03358 36.1722 4.64295 36.2405C3.84706 36.3724 3.21717 36.7386 2.65077 37.3929C1.3617 38.8773 0.516977 41.1722 0.0921724 44.3607C-0.0298979 45.2591 -0.0298979 47.6517 0.0872896 48.6087C0.277719 50.1224 0.741587 52.3343 1.17127 53.7552C1.33729 54.2972 1.71327 55.4153 1.85975 55.7864C2.30409 56.9241 2.44081 57.2659 2.66541 57.764C3.60291 59.8343 4.93592 62.0804 6.43983 64.1116C7.53846 65.6009 9.07167 67.1732 10.9467 68.7405L11.5375 69.2337L11.518 70.2737C11.4984 71.1429 11.5131 71.4359 11.5961 72.0657C11.8744 74.1068 12.3627 75.4935 13.2709 76.8216C14.5746 78.7161 16.806 80.303 20.4144 81.8851C21.0297 82.1585 22.2943 82.6175 23.6859 83.0814C25.7953 83.7845 26.9721 84.1165 28.9349 84.5609C30.1996 84.8489 31.8891 85.1517 33.7445 85.43C34.0131 85.4691 34.4428 85.5374 34.6967 85.5765C36.7182 85.8841 37.7631 85.972 39.9994 86.0306C41.0932 86.0599 41.6547 86.0941 41.7279 86.1331C41.8842 86.2161 45.9174 86.2161 46.0736 86.1331C46.1469 86.0941 46.7133 86.0599 47.8266 86.0306C49.8725 85.9769 51.3373 85.8597 52.641 85.6497C52.8021 85.6204 53.2416 85.5521 53.6176 85.4984C54.6771 85.3421 55.8197 85.1566 56.3519 85.0589C56.4887 85.0345 56.9037 84.9564 57.2797 84.888C57.6557 84.8196 58.0512 84.7415 58.1586 84.7171C58.266 84.6927 58.5736 84.6292 58.8422 84.5706C60.3559 84.2484 62.348 83.6868 64.2621 83.0374C66.6303 82.2366 67.5678 81.8607 69.0717 81.1087C71.9232 79.678 73.8178 78.1058 74.8773 76.2943C75.224 75.6985 75.2191 75.7083 75.3803 75.3177C76.0687 73.6771 76.4447 71.2796 76.2787 69.6243L76.2445 69.2532L76.9428 68.6673C78.1293 67.6663 78.2221 67.5833 79.2621 66.5286C80.6 65.1761 81.2982 64.3021 82.5531 62.4026C84.2963 59.7659 85.39 57.5394 86.3471 54.6634C86.7475 53.4671 87.2113 51.6898 87.3822 50.7083C87.7435 48.6478 87.8314 47.8519 87.8314 46.4603C87.8314 43.7405 87.1723 40.7278 86.1615 38.8724C85.2533 37.2025 84.4037 36.4505 83.1781 36.2405C82.7631 36.1722 82.6215 36.1673 82.0307 36.221C81.0932 36.3089 80.3607 36.4554 78.1537 36.9925C76.767 37.3343 76.7035 37.3441 76.1127 37.4271C74.7894 37.6028 73.1488 37.4124 72.5922 37.012C72.4799 36.929 72.3725 36.8118 72.348 36.7532C72.3285 36.6946 72.3285 36.2161 72.348 35.6937C72.4603 32.5345 72.1527 28.6819 71.557 25.806C70.8002 22.1536 69.726 19.3655 68.1586 16.9778C66.9281 15.1028 65.7318 14.0726 64.2572 13.6185C63.808 13.4769 62.9242 13.3304 62.5482 13.3304C62.3822 13.3304 62.226 13.306 62.2113 13.2816C62.1967 13.2523 62.2211 13.1741 62.2748 13.096C62.4115 12.9056 62.7826 12.1585 62.9828 11.6702C63.4613 10.5081 63.7152 9.15558 63.7201 7.78839C63.7201 6.4212 63.3539 5.07843 62.6361 3.83331C62.3822 3.39874 61.8549 2.71027 61.4447 2.29034C59.6234 0.405579 57.0014 -0.487976 55.4975 0.26886C55.1361 0.454407 54.9555 0.61554 54.6918 0.996399C54.5307 1.23077 54.5014 1.31378 54.4574 1.70929C54.4135 2.10968 54.4184 2.19269 54.5209 2.55402C54.5795 2.77374 54.7064 3.10089 54.7992 3.29132L54.9701 3.62823L54.7553 3.59894C54.643 3.57941 54.4037 3.54523 54.2279 3.51593C53.2562 3.36945 52.0014 3.53058 51.2689 3.89191C50.2387 4.4046 49.4916 5.21027 49.2621 6.06476C48.9545 7.19269 49.4965 8.59894 50.7465 9.91241C51.8939 11.1185 53.4076 11.9437 56.1566 12.8519C56.8012 13.0667 57.5043 13.3255 57.7191 13.428C58.1146 13.6136 58.5736 13.97 58.5736 14.0823C58.5736 14.1165 58.4125 14.2288 58.2221 14.3314C56.5082 15.2249 54.6967 17.0511 53.3978 19.1898C52.807 20.1663 52.0111 21.8069 51.6156 22.8763C50.7123 25.2982 50.5853 25.6644 50.0629 27.2464C49.4232 29.1653 49.3598 29.3851 48.7055 31.7386C47.8119 34.9661 47.8363 34.8782 47.6752 34.8441C46.0687 34.5023 42.3139 34.4778 40.4633 34.7903C40.2387 34.8294 40.0385 34.8489 40.0141 34.8343C39.9603 34.805 39.6674 33.8089 39.3256 32.5198C38.8666 30.7571 38.0707 28.1302 37.5531 26.6263C36.3617 23.1985 35.9125 22.056 35.1849 20.6058C34.2816 18.7991 33.3441 17.4808 32.0404 16.1868C31.2055 15.3568 30.4535 14.7806 29.6185 14.346C29.4037 14.2337 29.2279 14.1165 29.2279 14.0872C29.2279 14.014 29.4379 13.8235 29.7504 13.6087C30.0287 13.4232 30.5707 13.2034 31.474 12.9153C34.35 11.9925 36.0492 11.0599 37.2064 9.77081C38.3197 8.53058 38.8275 7.21222 38.5834 6.18195C38.4613 5.65948 38.1976 5.21027 37.7484 4.75616C37.0355 4.03839 36.3226 3.68683 35.2191 3.51593C34.7846 3.44269 33.6566 3.47687 33.2172 3.56964C33.0658 3.59894 32.9242 3.61359 32.9047 3.59406C32.8851 3.57941 32.9535 3.39386 33.0512 3.1839C33.3148 2.62726 33.3978 2.26593 33.3685 1.81671C33.3344 1.36261 33.266 1.18683 32.9633 0.786438C32.7728 0.537415 32.6703 0.449524 32.3529 0.293274C31.7767 0.000305176 31.0248 -0.072937 30.2289 0.0735474ZM26.7914 15.3812C28.6127 15.7278 30.1508 16.7679 31.7474 18.7503C32.8851 20.1614 33.8764 22.0706 34.7943 24.6341C34.8773 24.8734 35.0433 25.3372 35.1605 25.6595C35.7172 27.2073 36.1273 28.4427 36.4984 29.6878C36.6644 30.2396 36.8305 30.7864 36.8646 30.9085C36.9037 31.0306 36.9818 31.304 37.0404 31.5189C37.099 31.7337 37.1771 32.0071 37.2113 32.1292C37.2455 32.2513 37.3578 32.6468 37.4555 33.0081C37.5531 33.3694 37.724 33.9749 37.8314 34.3509C37.9389 34.7269 38.0805 35.2444 38.1439 35.4984C38.3783 36.3968 38.4174 36.4993 38.5687 36.6653C38.6566 36.7532 38.7933 36.8607 38.8812 36.8948C39.0717 36.9778 39.4721 36.9827 39.6625 36.9095C39.848 36.8362 40.7269 36.6946 41.5814 36.597C42.5531 36.4798 45.2728 36.4798 46.2201 36.5921C47.1527 36.7044 47.8168 36.8118 48.0951 36.89C48.6078 37.0462 49.0961 36.9241 49.3207 36.5775C49.3842 36.4798 49.4916 36.1819 49.5551 35.9134C49.6234 35.6448 49.809 34.9612 49.9701 34.3997C50.1312 33.8333 50.3754 32.9544 50.517 32.4466C51.059 30.4691 51.3568 29.4632 51.8695 27.93C53.6176 22.681 54.6185 20.5228 56.1859 18.6038C57.226 17.3294 58.3978 16.3528 59.4623 15.8743C61.0932 15.1468 62.9096 15.0638 64.1791 15.6741C64.9701 16.055 65.5951 16.6605 66.3959 17.8226C67.6166 19.595 68.6029 21.8851 69.2426 24.4144C69.3402 24.805 69.4379 25.2005 69.4623 25.2933C69.6185 25.9036 69.9408 27.681 70.0678 28.6624C70.3705 30.9573 70.4975 33.8235 70.3949 36.0941C70.3314 37.6077 70.3266 37.5882 70.9125 38.1253C71.6107 38.765 71.9379 38.9407 72.851 39.1849C73.432 39.346 74.809 39.473 75.4437 39.429C76.3959 39.3655 77.0746 39.2581 78.1293 38.9944C79.7748 38.5892 80.5512 38.4036 81.059 38.3109C82.1234 38.1058 82.9096 38.0862 83.2269 38.2523C83.7982 38.5501 84.599 39.8343 85.0385 41.1526C85.6098 42.886 85.8881 44.5853 85.8881 46.4359C85.8881 48.1204 85.6537 49.8343 85.1264 51.929C84.1937 55.6644 82.6459 58.9651 80.2142 62.4026C78.9691 64.1653 77.6068 65.596 75.5902 67.2757C75.0385 67.7347 74.9262 67.7835 74.7211 67.6566C74.3109 67.4026 72.9975 67.3343 72.1527 67.5247C70.1605 67.9788 68.1244 69.2825 66.7719 70.9573C65.9857 71.9339 65.5023 72.8812 65.2338 73.9749C65.1068 74.4778 65.1117 75.5569 65.2338 76.0745C65.351 76.5579 65.6976 77.2659 66.0004 77.6419C66.6205 78.4183 67.3529 78.848 68.3295 79.0042C68.8226 79.0872 68.8275 79.0775 67.9682 79.4974C66.7279 80.098 65.4486 80.6009 63.5785 81.2259C60.6244 82.2122 58.9301 82.6321 55.4486 83.2523C55.1654 83.306 54.3305 83.4329 53.4223 83.5648C53.1293 83.6087 52.7631 83.6673 52.6166 83.6917C51.3324 83.9163 49.7309 84.0482 47.5873 84.1068C46.2934 84.1409 44.6527 84.1849 44.1693 84.1995C43.9398 84.2093 43.2709 84.1946 42.6801 84.1751C42.0892 84.1556 41.059 84.1263 40.3851 84.1116C38.1635 84.0579 36.8744 83.9554 35.3558 83.7161C35.1166 83.6771 34.6771 83.6136 34.3793 83.5696C29.4965 82.8421 26.3764 82.0657 22.3432 80.5667C21.2348 80.1517 19.1693 79.2239 19.0961 79.1019C19.0863 79.0823 19.2572 79.0433 19.4769 79.0091C20.2631 78.8919 20.9027 78.5745 21.4642 78.0228C23.0316 76.4944 23.0902 74.0335 21.6205 71.7532C20.9076 70.6448 19.8187 69.5755 18.6078 68.7894C17.8217 68.2816 16.6303 67.7591 15.7709 67.5491C15.0385 67.3685 14.0717 67.3587 13.4662 67.5247C13.2465 67.5882 13.0512 67.6566 13.0365 67.681C12.9242 67.8665 12.4408 67.5198 10.9174 66.1331C9.66737 65.0003 8.71034 63.9505 7.84608 62.7493C4.76991 58.4915 2.99745 54.346 2.18202 49.4876C1.99647 48.389 1.92811 47.5638 1.92811 46.4847C1.92811 43.2474 2.85584 39.9905 4.1742 38.6087C4.52577 38.2425 4.64784 38.179 5.10194 38.1497C5.80995 38.1009 6.83534 38.2816 9.28163 38.8968C11.3226 39.4046 12.3187 39.5169 13.681 39.3851C15.3265 39.2239 16.0297 38.9456 16.9086 38.1009C17.2553 37.7689 17.3676 37.6273 17.4066 37.4759C17.4457 37.3392 17.4457 36.846 17.4066 35.7913C17.3383 33.9359 17.4262 31.3968 17.6117 29.7855C17.7924 28.1937 18.0316 26.6605 18.2367 25.806C18.266 25.6985 18.3344 25.4007 18.393 25.1468C19.0668 22.1976 20.1459 19.6243 21.5131 17.681C22.6801 16.0306 23.5346 15.4691 25.1996 15.264C25.4682 15.2298 26.3178 15.2933 26.7914 15.3812Z" fill="#CE1879"/>
<path d="M22.9145 23.3451C21.7573 23.6283 21.0493 24.434 20.6977 25.8793C20.5707 26.4067 20.5854 27.476 20.727 28.1938C21.0932 30.0541 21.8598 31.685 23.3686 33.8383C23.8715 34.5561 24.9262 35.8402 25.395 36.309C25.7954 36.7094 25.8735 36.768 26.2348 36.9047C26.6938 37.0805 26.9672 37.1 27.2504 36.9682C28.0561 36.6068 29.6088 33.6674 30.5854 30.6645C31.1567 28.9213 31.3764 27.8178 31.3813 26.7192C31.3862 25.8793 31.2543 25.4008 30.893 24.9516C30.5024 24.4682 30.3608 24.3949 29.7162 24.3363C29.3647 24.307 29.3256 24.3119 28.935 24.4828C28.476 24.683 27.9389 25.1225 27.3725 25.767C27.2016 25.9623 27.0454 26.1088 27.0209 26.0942C26.9965 26.0795 26.933 25.977 26.8793 25.8647C26.6791 25.474 26.1762 24.7807 25.81 24.3949C24.9311 23.4721 23.9106 23.101 22.9145 23.3451Z" fill="#CE1879"/>
<path d="M63.9936 23.2914C63.0024 23.3988 62.0844 24.0922 61.2641 25.3471C61.0493 25.6791 60.8442 25.9916 60.81 26.0404C60.7514 26.1235 60.7221 26.099 60.4536 25.7768C59.8237 25.0151 58.9643 24.3998 58.4272 24.3315C58.183 24.2973 57.5532 24.3998 57.3774 24.5072C57.0942 24.6684 56.7036 25.2006 56.5815 25.5863C56.2202 26.6996 56.5278 28.7846 57.4116 31.226C58.476 34.1654 59.809 36.6069 60.5463 36.9633C60.8246 37.0951 61.0639 37.0854 61.5278 36.9291C61.8989 36.8022 61.9428 36.7729 62.436 36.2797C63.3832 35.3373 64.8676 33.3549 65.5512 32.1293C66.3422 30.7084 66.7426 29.7367 66.9916 28.6137C67.1821 27.7885 67.2309 27.3051 67.2016 26.7045C67.1137 24.8686 66.2836 23.6772 64.8676 23.3354C64.6528 23.2865 64.4379 23.2475 64.394 23.2475C64.35 23.2524 64.1694 23.2719 63.9936 23.2914Z" fill="#CE1879"/>
<path d="M34.306 42.0073C34.0619 42.0805 33.6078 42.3588 33.4417 42.5395C33.0755 42.935 32.8949 43.7162 33.012 44.3852C33.1976 45.4008 33.6566 46.1772 34.6722 47.1928C35.556 48.0766 36.9964 49.0873 37.8216 49.395C37.9144 49.4291 38.1146 49.5024 38.2611 49.561C38.6322 49.7026 39.3353 49.8539 39.6185 49.8539C40.0189 49.8539 40.6048 49.6391 40.9662 49.3608C41.8451 48.6772 42.0501 47.603 41.5081 46.4653C41.1761 45.7621 40.3558 44.8393 39.4525 44.1557C38.9349 43.7602 37.2064 42.642 36.7718 42.4174C36.0882 42.0659 34.8285 41.8559 34.306 42.0073Z" fill="#CE1879"/>
<path d="M52.4701 41.978C51.9623 42.0659 51.3422 42.2612 51.0199 42.4321C50.5267 42.6909 48.9935 43.6821 48.4125 44.1166C47.8754 44.5121 47.0697 45.3032 46.7426 45.7475C46.4203 46.1821 46.1371 46.7924 46.0443 47.2661C45.9711 47.6323 45.9711 47.6909 46.0443 48.0571C46.1566 48.6186 46.4105 49.0239 46.8842 49.3901C47.2015 49.6391 47.8119 49.8539 48.1927 49.8539C48.9594 49.8539 50.2924 49.3412 51.347 48.6479C52.4701 47.9057 53.6127 46.8364 54.1107 46.06C54.8822 44.8539 55.0385 43.8188 54.5941 42.8959C54.4281 42.5493 54.389 42.5053 54.0521 42.2856C53.8422 42.1489 53.5883 42.0268 53.4418 41.9975C53.2025 41.9438 52.7142 41.934 52.4701 41.978Z" fill="#CE1879"/>
<path d="M33.3783 51.5629C32.6605 51.6606 31.9085 51.9243 31.2542 52.3051C30.4827 52.7592 29.6087 53.5405 29.0765 54.2583L28.7982 54.6391L28.5101 54.3315C27.6654 53.4282 27.1087 53.0522 26.0882 52.6909C25.3802 52.4418 24.7894 52.3442 23.9691 52.3393C23.2269 52.3344 22.8753 52.3881 22.2943 52.5834C21.2835 52.9301 20.4437 53.6674 19.9749 54.6098C19.7113 55.1469 19.6185 55.5473 19.5745 56.3286L19.5452 56.9243L19.0521 56.9487C18.7786 56.9633 18.4271 57.0073 18.2659 57.0512C17.1283 57.3637 16.2493 58.2036 15.9857 59.229C15.8929 59.5903 15.888 59.6733 15.9417 60.0004C15.971 60.2006 16.054 60.4985 16.1273 60.6645C16.6351 61.8266 18.1097 62.935 19.6771 63.3305C19.8919 63.3842 20.0726 63.4379 20.0872 63.4526C20.1019 63.4624 20.0872 63.5356 20.0531 63.6088C20.0238 63.6821 19.9652 63.9213 19.9261 64.1362C19.8577 64.5024 19.8577 64.5512 19.9456 64.8442C20.0824 65.3178 20.1214 65.3959 20.3607 65.7084C20.9368 66.4702 21.9281 66.8901 23.0267 66.8315C23.3099 66.8168 23.6859 66.7729 23.8617 66.729C24.1937 66.6508 24.9017 66.3432 24.9554 66.2602C25.0335 66.1381 25.1898 66.2211 25.6146 66.6215C26.3275 67.2807 27.7728 68.3793 28.388 68.7211C28.637 68.8579 28.7884 68.9067 29.0911 68.9409C29.8529 69.0288 30.0042 68.9506 32.4505 67.2661C33.7152 66.3969 34.3011 65.9672 35.0628 65.3569C37.5677 63.3403 38.8861 61.2211 39.2962 58.5698C39.3841 57.9985 39.3695 56.7094 39.2718 56.1772C39.0081 54.7221 38.2415 53.4233 37.1868 52.6372C36.0589 51.8022 34.6234 51.3969 33.3783 51.5629ZM33.9984 55.2983C35.0091 55.5327 35.8734 56.1088 36.4349 56.934C37.2845 58.1743 37.055 60.0053 35.9076 61.143C34.682 62.3588 32.8118 62.3588 31.4398 61.1479C30.8783 60.6499 30.4583 59.9272 30.2728 59.1459C30.1702 58.7211 30.2044 57.8325 30.3411 57.3735C30.556 56.6508 30.9368 56.0747 31.4202 55.7426C31.7181 55.5424 32.2503 55.3129 32.5482 55.2592C32.8509 55.2055 33.6859 55.2299 33.9984 55.2983ZM27.6361 57.9887C28.471 58.2036 29.2767 58.9409 29.472 59.6684C29.7113 60.5473 29.3011 61.3383 28.3783 61.7924C27.8997 62.0317 27.431 62.1196 26.9867 62.0659C25.849 61.9243 25.0921 60.9624 25.1898 59.7905C25.307 58.4086 26.3372 57.6518 27.6361 57.9887ZM28.7493 62.7983C28.8909 62.8276 29.1595 62.9204 29.3451 63.0034L29.6771 63.1547L30.0042 62.9741C30.4193 62.7495 30.6243 62.7202 31.0736 62.8129C31.6058 62.9301 31.8011 63.0571 31.9818 63.4135C32.1624 63.77 32.0062 64.5024 31.6449 64.9809C30.8734 66.0063 30.3265 66.4506 29.7796 66.4946C29.5501 66.5141 29.472 66.4946 29.1839 66.3432C28.3929 65.9282 27.6556 65.2934 27.3333 64.7514C26.9769 64.1557 27.0062 63.8286 27.4701 63.2133C27.7972 62.7788 28.1341 62.6713 28.7493 62.7983Z" fill="#CE1879"/>
<path d="M33.2075 56.3969C33.0414 56.4213 32.7534 56.5141 32.5483 56.6117C31.8256 56.9487 31.3862 57.5297 31.2592 58.3256C31.2006 58.6967 31.2055 58.7846 31.2787 59.1459C31.4985 60.2201 32.353 61.0795 33.3539 61.2309C33.7104 61.2846 33.7787 61.2797 34.1059 61.1869C34.9018 60.9623 35.5219 60.4252 35.8539 59.6684C36.0297 59.2729 36.0346 59.2289 36.0395 58.7162C36.0395 58.1987 36.0346 58.1645 35.8637 57.8129C35.5317 57.1147 34.9164 56.6166 34.1694 56.4408C33.769 56.3432 33.6664 56.3383 33.2075 56.3969Z" fill="#CE1879"/>
<path d="M26.6791 58.809C26.3519 58.8969 26.0883 59.0971 25.9369 59.3705C25.8344 59.5658 25.8099 59.6684 25.8099 59.9662C25.8148 60.5375 26.0687 60.9623 26.5619 61.2211C27.0209 61.4555 27.7826 61.3676 28.2513 61.0307C28.6615 60.7328 28.8031 60.1323 28.5736 59.644C28.2904 59.0336 27.3529 58.6186 26.6791 58.809Z" fill="#CE1879"/>
<path d="M30.1556 63.4623C30.0629 63.5014 29.9115 63.5893 29.8236 63.6577L29.6625 63.7797L29.3597 63.643C28.9838 63.4721 28.5052 63.4526 28.2855 63.5942C28.056 63.7504 27.9095 64.0532 27.9095 64.3852C27.9144 64.9321 28.2513 65.3862 28.9301 65.7426C29.223 65.894 29.3109 65.9184 29.6088 65.9184C30.0873 65.9184 30.3998 65.7719 30.7562 65.3764C31.0736 65.0297 31.2347 64.7319 31.2689 64.4291C31.3031 64.1118 31.2445 63.8871 31.0736 63.6918C30.8002 63.3793 30.5121 63.3061 30.1556 63.4623Z" fill="#CE1879"/>
<path d="M53.1537 51.5629C51.6352 51.807 50.2875 52.6567 49.4574 53.8822C48.7641 54.9076 48.4662 55.977 48.4662 57.4174C48.4613 59.2143 48.9447 60.8012 49.9848 62.4027C51.059 64.0629 52.4701 65.3031 56.059 67.7494C57.2895 68.5893 57.5287 68.7309 57.9389 68.8676C58.266 68.975 58.349 68.9799 58.7006 68.9457C59.018 68.9115 59.1547 68.8676 59.4281 68.7211C60.0629 68.3695 61.4301 67.3246 62.4067 66.436C62.5434 66.3139 62.6703 66.2113 62.6996 66.2113C62.724 66.2113 62.9096 66.2992 63.1147 66.4018C64.599 67.1781 66.4789 66.8998 67.3969 65.7768C67.6459 65.474 67.7631 65.2299 67.8754 64.7904C67.9438 64.5317 67.9438 64.4584 67.8754 64.1068C67.8363 63.892 67.7777 63.6723 67.7484 63.6137C67.7045 63.5258 67.7094 63.4965 67.7826 63.4428C67.8315 63.4086 67.9096 63.3793 67.9535 63.3793C68.1098 63.3793 68.9399 63.0815 69.3305 62.8861C69.8725 62.6127 70.3266 62.3051 70.7318 61.9291C71.4154 61.2943 71.7621 60.7133 71.8647 60.0248C71.9379 59.5121 71.8354 59.0434 71.5424 58.5502C71.1908 57.9496 70.7514 57.559 70.0824 57.2563C69.6381 57.0512 69.3109 56.9731 68.7299 56.9389L68.266 56.9096L68.2563 56.5922C68.2074 55.2397 67.9193 54.4633 67.1967 53.6772C66.6156 53.0522 65.8637 52.6322 64.9457 52.4174C64.4379 52.2953 63.2953 52.31 62.6264 52.4467C61.7377 52.6274 60.9125 52.9643 60.307 53.3988C60.0385 53.5893 59.433 54.1703 59.1498 54.5121L59.0277 54.6537L58.7592 54.2924C58.017 53.2914 56.9574 52.432 55.8979 51.9731C55.0776 51.6215 53.891 51.4408 53.1537 51.5629ZM55.7416 55.4008C56.6449 55.7377 57.1527 56.3334 57.4945 57.4711C57.6996 58.1352 57.6264 59.1068 57.3236 59.8246C57.0014 60.5912 56.352 61.2943 55.6342 61.6606C54.3061 62.3344 52.8998 62.1342 51.8891 61.1332C51.0834 60.3373 50.683 59.019 50.932 57.9838C51.2055 56.8315 52.1723 55.8061 53.349 55.4301C53.935 55.2445 54.0522 55.2299 54.7162 55.2445C55.2924 55.2592 55.4193 55.2787 55.7416 55.4008ZM61.3715 58.0082C62.1772 58.2572 62.6752 59.1068 62.6166 60.1322C62.5043 62.0024 60.3608 62.725 58.8324 61.4018C58.7006 61.2895 58.559 61.0893 58.4467 60.8647C58.2758 60.518 58.2709 60.4887 58.2904 60.0981C58.3051 59.7709 58.3442 59.6293 58.4662 59.3705C58.9838 58.2914 60.2973 57.6762 61.3715 58.0082ZM57.7387 62.9447L58.1488 63.1449L58.4711 62.9985C59.0473 62.7348 59.5697 62.6762 59.9213 62.8373C60.2777 62.9985 60.7221 63.682 60.7221 64.0678C60.7221 64.7172 59.8041 65.7182 58.642 66.3334C58.3442 66.4945 58.2709 66.5092 58.0317 66.4945C57.602 66.4652 57.1625 66.1772 56.684 65.6156C56.1127 64.9467 55.9613 64.7123 55.8442 64.3217C55.7172 63.8969 55.7172 63.6625 55.8344 63.3988C55.9613 63.1205 56.2152 62.9399 56.6352 62.8422C57.1723 62.7104 57.2846 62.7201 57.7387 62.9447Z" fill="#CE1879"/>
<path d="M53.6029 56.4457C52.8608 56.641 52.2406 57.1586 51.9379 57.852C51.8012 58.1645 51.7817 58.2572 51.7768 58.7016C51.7719 59.1752 51.7817 59.2289 51.9428 59.6147C52.2748 60.4057 52.8803 60.9525 53.686 61.182C54.0766 61.2943 54.0961 61.2943 54.5112 61.2162C55.0483 61.1234 55.4242 60.9086 55.849 60.4545C57.0502 59.1752 56.7426 57.2709 55.2192 56.5873C54.9213 56.4555 54.3988 56.3481 54.0815 56.3529C54.0131 56.3529 53.7983 56.3969 53.6029 56.4457Z" fill="#CE1879"/>
<path d="M60.4534 58.7895C59.8919 58.9067 59.4525 59.2192 59.2523 59.6342C59.0179 60.1323 59.0911 60.5815 59.4622 60.9379C59.7503 61.2211 60.4193 61.4213 60.8392 61.3481C61.6058 61.2211 62.1527 60.4545 62.0013 59.7221C61.9671 59.5707 61.8841 59.3608 61.806 59.2533C61.557 58.8969 60.9417 58.6869 60.4534 58.7895Z" fill="#CE1879"/>
<path d="M56.9818 63.4868C56.6254 63.7602 56.5033 63.9897 56.5326 64.3315C56.5766 64.8637 57.0356 65.5131 57.5531 65.7768C58.1586 66.0795 58.8471 65.9135 59.4916 65.3129C59.7065 65.1176 59.8773 64.771 59.9164 64.4731C59.9408 64.2729 59.9262 64.1948 59.809 63.9702C59.6137 63.5893 59.477 63.5063 59.0717 63.5063C58.8178 63.5063 58.6811 63.5356 58.4613 63.643L58.1732 63.7797L58.0316 63.6772C57.8217 63.521 57.4652 63.3794 57.2846 63.3794C57.1918 63.3794 57.06 63.4282 56.9818 63.4868Z" fill="#CE1879"/>
<path d="M33.9398 69.9711C33.0121 70.0688 32.0892 70.7084 31.6693 71.5483C31.181 72.5297 31.6449 73.8432 32.7142 74.4779C33.1683 74.7465 33.4711 74.849 33.9642 74.9028C34.4721 74.9565 34.8773 74.9028 35.3851 74.7026C35.7611 74.5561 35.9418 74.5268 35.9857 74.6049C36.0785 74.7465 37.1381 75.0004 37.6654 75.0004C38.4418 75.0004 39.7601 74.6391 40.3558 74.2582C40.6293 74.0873 40.6879 74.0873 40.8978 74.2582C41.6742 74.8881 43.183 75.2397 44.5013 75.1029C45.4877 75.0004 46.3422 74.7026 46.9086 74.2582C47.0062 74.185 47.1137 74.1215 47.1478 74.1215C47.182 74.1215 47.3676 74.2094 47.558 74.3119C48.1049 74.6147 48.6371 74.7904 49.433 74.9223C50.3168 75.0737 50.8929 75.0004 51.8695 74.6049C52.0062 74.5512 52.0599 74.561 52.431 74.6977C52.6508 74.7856 52.973 74.8735 53.1439 74.8979C54.306 75.0785 55.6049 74.4242 56.0736 73.4281C56.2885 72.9692 56.3422 72.7153 56.3178 72.2514C56.2982 71.8901 56.2738 71.8022 56.0883 71.4555C55.6244 70.5815 54.6527 69.9809 53.681 69.9662C52.3724 69.9467 51.3519 70.7963 51.1224 72.0951C51.0834 72.31 51.0638 72.5346 51.0785 72.5932C51.1224 72.769 51.059 72.8422 50.7806 72.9496C50.3558 73.1059 49.6527 73.057 48.9642 72.8276C48.4662 72.6567 48.3148 72.5346 48.0365 72.0903C47.8461 71.7875 47.7094 71.6557 47.4799 71.558C47.1332 71.4164 46.7084 71.4897 46.4642 71.7387C46.3812 71.8217 46.2494 72.0121 46.1713 72.1684C45.9955 72.5151 45.6635 72.8178 45.2972 72.9545C44.3842 73.2963 43.1097 73.2621 42.3285 72.8666C42.0111 72.7104 41.8304 72.5199 41.6156 72.1195C41.3422 71.602 40.9222 71.3969 40.4193 71.5336C40.1703 71.5971 39.8431 71.8998 39.7113 72.183C39.5941 72.432 39.4623 72.5444 39.1107 72.7104C38.4369 73.0326 37.4017 73.1352 36.9623 72.9203L36.7719 72.8276L36.7377 72.4369C36.6693 71.6801 36.474 71.2113 36.0248 70.7377C35.4779 70.1664 34.726 69.893 33.9398 69.9711Z" fill="#CE1879"/>
</svg>
