<svg width="170" height="170" viewBox="0 0 170 170" fill="none" xmlns="http://www.w3.org/2000/svg">
<rect x="10" y="10" width="150" height="150" fill="#CE1879" stroke="#252527" stroke-width="20"/>
<rect x="37.4576" y="32.5308" width="96.0452" height="104.938" fill="#252527"/>
<path d="M85 51.6666C89.9408 51.6616 94.8207 52.7572 99.2851 54.8738C103.75 56.9905 107.687 60.075 110.81 63.9033L89.7133 85L110.81 106.097C107.687 109.925 103.75 113.009 99.2851 115.126C94.8207 117.243 89.9408 118.338 85 118.333C66.59 118.333 51.6666 103.41 51.6666 85C51.6666 66.59 66.59 51.6666 85 51.6666ZM85 61.6666C83.6739 61.6666 82.4021 62.1934 81.4644 63.1311C80.5267 64.0688 80 65.3406 80 66.6666C80 67.9927 80.5267 69.2645 81.4644 70.2022C82.4021 71.1399 83.6739 71.6666 85 71.6666C86.326 71.6666 87.5978 71.1399 88.5355 70.2022C89.4732 69.2645 90 67.9927 90 66.6666C90 65.3406 89.4732 64.0688 88.5355 63.1311C87.5978 62.1934 86.326 61.6666 85 61.6666Z" fill="#CE1879"/>
</svg>
