<svg width="170" height="170" viewBox="0 0 170 170" fill="none" xmlns="http://www.w3.org/2000/svg">
<rect x="10" y="10" width="150" height="150" fill="#CE1879" stroke="#252527" stroke-width="20"/>
<rect x="37.4576" y="32.5308" width="96.0452" height="104.938" fill="#252527"/>
<path d="M85 103.333C92.7666 103.333 99.3333 98.4667 102.033 91.6667H67.9666C70.6333 98.4667 77.2333 103.333 85 103.333ZM73.3333 81.6667C74.6594 81.6667 75.9311 81.1399 76.8688 80.2022C77.8065 79.2645 78.3333 77.9928 78.3333 76.6667C78.3333 75.3406 77.8065 74.0688 76.8688 73.1312C75.9311 72.1935 74.6594 71.6667 73.3333 71.6667C72.0072 71.6667 70.7354 72.1935 69.7978 73.1312C68.8601 74.0688 68.3333 75.3406 68.3333 76.6667C68.3333 77.9928 68.8601 79.2645 69.7978 80.2022C70.7354 81.1399 72.0072 81.6667 73.3333 81.6667ZM96.6666 81.6667C97.9927 81.6667 99.2645 81.1399 100.202 80.2022C101.14 79.2645 101.667 77.9928 101.667 76.6667C101.667 75.3406 101.14 74.0688 100.202 73.1312C99.2645 72.1935 97.9927 71.6667 96.6666 71.6667C95.3405 71.6667 94.0688 72.1935 93.1311 73.1312C92.1934 74.0688 91.6666 75.3406 91.6666 76.6667C91.6666 77.9928 92.1934 79.2645 93.1311 80.2022C94.0688 81.1399 95.3405 81.6667 96.6666 81.6667ZM85 111.667C77.9275 111.667 71.1447 108.857 66.1438 103.856C61.1428 98.8552 58.3333 92.0725 58.3333 85C58.3333 77.9276 61.1428 71.1448 66.1438 66.1438C71.1447 61.1429 77.9275 58.3334 85 58.3334C92.0724 58.3334 98.8552 61.1429 103.856 66.1438C108.857 71.1448 111.667 77.9276 111.667 85C111.667 92.0725 108.857 98.8552 103.856 103.856C98.8552 108.857 92.0724 111.667 85 111.667ZM85 51.6667C66.5666 51.6667 51.6666 66.6667 51.6666 85C51.6666 93.8406 55.1785 102.319 61.4297 108.57C64.525 111.666 68.1997 114.121 72.2438 115.796C76.288 117.471 80.6226 118.333 85 118.333C93.8405 118.333 102.319 114.821 108.57 108.57C114.821 102.319 118.333 93.8406 118.333 85C118.333 80.6226 117.471 76.2881 115.796 72.2439C114.121 68.1997 111.665 64.5251 108.57 61.4298C105.475 58.3345 101.8 55.8792 97.7561 54.204C93.7119 52.5289 89.3774 51.6667 85 51.6667Z" fill="#CE1879"/>
</svg>
