<svg width="170" height="170" viewBox="0 0 170 170" fill="none" xmlns="http://www.w3.org/2000/svg">
<rect x="10" y="10" width="150" height="150" fill="#CE1879" stroke="#252527" stroke-width="20"/>
<rect x="37.4576" y="32.5308" width="96.0452" height="104.938" fill="#252527"/>
<path fill-rule="evenodd" clip-rule="evenodd" d="M108.126 57.1029C109.011 51.7314 104.903 45.7314 98.5543 46.4914C94.5543 46.9714 89.5886 48.32 85.7657 52.2457C84.3236 52.0851 82.8739 52.0031 81.4229 52C71.9257 52 63.1886 55.5486 56.8229 61.3714C55.2928 59.911 54.1062 58.1291 53.3486 56.1543C53.1865 55.7142 52.9393 55.3103 52.6211 54.9657C52.3029 54.6211 51.92 54.3426 51.4942 54.146C51.0684 53.9494 50.608 53.8386 50.1394 53.8199C49.6707 53.8012 49.203 53.875 48.7629 54.0371C48.3227 54.1992 47.9189 54.4464 47.5743 54.7646C47.2297 55.0828 46.9512 55.4657 46.7546 55.8915C46.558 56.3173 46.4472 56.7777 46.4285 57.2464C46.4098 57.715 46.4836 58.1827 46.6457 58.6229C47.8216 61.7042 49.684 64.4772 52.0914 66.7314C48.6951 71.4978 46.7412 77.1403 46.4626 82.9863C46.184 88.8323 47.5924 94.6351 50.52 99.7029L50.3771 100.257L48.88 106.829C48.0686 110.351 48.6833 114.051 50.59 117.121C52.4967 120.191 55.5405 122.383 59.0571 123.217C61.9927 123.894 65.07 123.572 67.8022 122.303C70.5345 121.034 72.7657 118.891 74.1429 116.211C78.1122 116.992 82.1814 117.129 86.1943 116.617C87.6234 119.179 89.8458 121.208 92.5272 122.398C95.2086 123.589 98.2041 123.876 101.063 123.217C104.037 122.515 106.69 120.836 108.597 118.448C110.505 116.06 111.556 113.102 111.583 110.046L118.451 106.571C121.606 104.983 123.571 101.737 123.571 98.2171V84.4571C123.571 79.5543 119.8 75.4857 114.96 75.1314C113.404 70.3841 110.758 66.0669 107.234 62.5257L108.126 57.1029ZM99.4057 53.5829C99.8229 53.5314 100.234 53.68 100.594 54.1029C100.977 54.56 101.194 55.2343 101.08 55.9371L99.88 63.2229C99.68 64.4229 100.109 65.6457 101.017 66.4629C104.885 69.8791 107.585 74.4214 108.737 79.4514C109.103 81.0857 110.554 82.2514 112.223 82.2514H114.28C115.429 82.2514 116.429 83.2 116.429 84.4571V98.2171C116.429 99.0743 115.949 99.8343 115.229 100.2L106.211 104.754C105.518 105.106 104.958 105.673 104.617 106.371C104.276 107.07 104.171 107.86 104.32 108.623C104.994 112.109 102.811 115.48 99.4457 116.263C97.8293 116.628 96.1342 116.355 94.7146 115.5C93.2951 114.645 92.261 113.274 91.8286 111.674C91.5852 110.801 91.0188 110.053 90.2441 109.582C89.4695 109.11 88.5446 108.952 87.6572 109.137C82.7626 110.157 77.6926 109.961 72.8914 108.566C72.4245 108.43 71.9347 108.39 71.4521 108.45C70.9695 108.51 70.5042 108.668 70.0847 108.914C69.6653 109.16 69.3005 109.489 69.0127 109.882C68.725 110.274 68.5204 110.72 68.4114 111.194L68.3714 111.366C67.5657 114.909 64.0971 117.057 60.6743 116.263C58.9963 115.856 57.5472 114.802 56.6428 113.332C55.7383 111.861 55.4518 110.092 55.8457 108.411L57.3429 101.84C57.4343 101.436 57.56 101.05 57.72 100.68C57.9503 100.139 58.0447 99.5502 57.9949 98.9645C57.9451 98.3788 57.7526 97.8142 57.4343 97.32C54.919 93.5012 53.5762 89.0299 53.5714 84.4571C53.5714 70.7543 65.7543 59.1429 81.4286 59.1429C83.2 59.1429 84.9219 59.2876 86.5943 59.5771C87.2393 59.6892 87.9027 59.6204 88.5109 59.3783C89.1192 59.1362 89.6484 58.7303 90.04 58.2057C92.2914 55.2343 95.7371 54.0286 99.4057 53.5829ZM85.7143 69.9943C85.7143 71.3204 85.1875 72.5921 84.2498 73.5298C83.3121 74.4675 82.0404 74.9943 80.7143 74.9943H73.5486C72.2225 74.9943 70.9507 74.4675 70.013 73.5298C69.0754 72.5921 68.5486 71.3204 68.5486 69.9943C68.5486 68.6682 69.0754 67.3964 70.013 66.4587C70.9507 65.5211 72.2225 64.9943 73.5486 64.9943H80.7143C83.4743 64.9943 85.7143 67.2343 85.7143 69.9943ZM103.971 79.6971C103.971 78.7499 103.595 77.8415 102.925 77.1718C102.256 76.502 101.347 76.1257 100.4 76.1257C99.4528 76.1257 98.5444 76.502 97.8746 77.1718C97.2049 77.8415 96.8286 78.7499 96.8286 79.6971V85C96.8286 85.9472 97.2049 86.8556 97.8746 87.5254C98.5444 88.1951 99.4528 88.5714 100.4 88.5714C101.347 88.5714 102.256 88.1951 102.925 87.5254C103.595 86.8556 103.971 85.9472 103.971 85V79.6971Z" fill="#CE1879"/>
</svg>
