<svg width="50" height="28" viewBox="0 0 50 28" fill="none" xmlns="http://www.w3.org/2000/svg">
<path d="M11.0528 0H5.5264C4.0607 0 2.65504 0.582243 1.61864 1.61864C0.582243 2.65504 0 4.0607 0 5.52639V27.632H5.5264V16.5792H11.0528V27.632H16.5792V5.52639C16.5792 4.0607 15.9969 2.65504 14.9605 1.61864C13.9241 0.582243 12.5185 0 11.0528 0ZM11.0528 11.0528H5.5264V5.52639H11.0528M30.3952 0H19.3424V27.632H24.8688V16.5792H30.3952C31.8609 16.5792 33.2665 15.9969 34.3029 14.9605C35.3393 13.9241 35.9216 12.5185 35.9216 11.0528V5.52639C35.9216 4.0607 35.3393 2.65504 34.3029 1.61864C33.2665 0.582243 31.8609 0 30.3952 0ZM30.3952 11.0528H24.8688V5.52639H30.3952M46.9744 5.52639V22.1056H49.7376V27.632H38.6848V22.1056H41.448V5.52639H38.6848V0H49.7376V5.52639H46.9744Z" fill="#252527"/>
</svg>
