<svg width="33" height="52" viewBox="0 0 33 52" fill="none" xmlns="http://www.w3.org/2000/svg">
<path fill-rule="evenodd" clip-rule="evenodd" d="M7.14287 18.4222C6.20558 18.4222 5.27747 18.6069 4.41153 18.9655C3.54559 19.3242 2.75877 19.85 2.09601 20.5127C1.43324 21.1755 0.907512 21.9623 0.548827 22.8282C0.190142 23.6942 0.00552999 24.6223 0.00552999 25.5596C0.00552999 26.4969 0.190142 27.425 0.548827 28.2909C0.907512 29.1569 1.43324 29.9437 2.09601 30.6064C2.75877 31.2692 3.54559 31.7949 4.41153 32.1536C5.27747 32.5123 6.20558 32.6969 7.14287 32.6969H14.2802V18.4222H7.14287ZM14.2802 14.2774H7.14287C5.24956 14.2774 3.4338 13.5253 2.09503 12.1866C0.756261 10.8478 0.00414783 9.03203 0.00414783 7.13872C0.00414783 5.24541 0.756261 3.42965 2.09503 2.09088C3.4338 0.752113 5.24956 0 7.14287 0H14.2802V14.2774ZM18.425 0V14.2774H25.5623C27.4313 14.2407 29.2114 13.4724 30.5201 12.1376C31.8289 10.8029 32.562 9.00807 32.562 7.13872C32.562 5.26937 31.8289 3.47458 30.5201 2.13981C29.2114 0.805045 27.4313 0.0367725 25.5623 0H18.425ZM25.5623 18.4195C23.6889 18.4192 21.8904 19.1556 20.5551 20.4697C19.2198 21.7838 18.4547 23.5703 18.425 25.4435V25.6729C18.4479 27.0793 18.8858 28.4477 19.6839 29.606C20.4819 30.7644 21.6044 31.6611 22.9105 32.1836C24.2165 32.706 25.6478 32.8309 27.0246 32.5426C28.4013 32.2542 29.6622 31.5655 30.6488 30.5628C31.6354 29.5602 32.3037 28.2884 32.5699 26.9071C32.836 25.5259 32.688 24.0968 32.1446 22.7993C31.6011 21.5019 30.6864 20.394 29.5153 19.6147C28.3442 18.8355 26.969 18.4197 25.5623 18.4195ZM7.14287 36.8417C5.73057 36.8412 4.34983 37.2595 3.17529 38.0437C2.00074 38.8279 1.08515 39.9429 0.544305 41.2475C0.00346404 42.5521 -0.138329 43.9879 0.136861 45.3731C0.412052 46.7583 1.09186 48.0308 2.09031 49.0297C3.08876 50.0285 4.36101 50.7088 5.74613 50.9845C7.13125 51.2602 8.56702 51.119 9.87187 50.5787C11.1767 50.0383 12.292 49.1232 13.0767 47.9489C13.8614 46.7747 14.2802 45.3941 14.2802 43.9818V36.8417H7.14287Z" fill="#252527"/>
</svg>
