<svg width="30" height="30" viewBox="0 0 30 30" fill="none" xmlns="http://www.w3.org/2000/svg">
<path d="M2.5 15C2.5 16.6415 2.82332 18.267 3.45151 19.7835C4.07969 21.3001 5.00043 22.6781 6.16117 23.8388C8.50537 26.183 11.6848 27.5 15 27.5C20.525 27.5 25.2125 23.9125 26.875 18.95C26.975 18.325 26.5875 18.125 26.25 18.125H24.1375C24.8875 21.5875 22.4625 22.325 22.4625 22.325C21.0125 22.9 20.625 23.7125 20.625 23.7125C19.85 24.85 19.875 23.625 19.875 23.625C19.9625 22.375 21.1625 21.7125 21.1625 21.7125C23.0625 20.625 22.5 18.7875 22.2 18.075C21.3875 17.9625 20.8375 17.6375 20.525 17.2875C20.2125 20.0625 19.1375 22.975 14.375 22.975C12.9875 22.975 11.875 22.5 10.9875 21.6875C10.675 21.8125 9.375 22.25 7.6875 21.5625C7.6875 21.5625 7.35 20.5125 8.9625 18.125C8.6875 17.1375 8.55 16.0625 8.55 15C8.55 13.9375 8.6875 12.8625 8.9625 11.875C7.35 9.4875 7.6875 8.4375 7.6875 8.4375C9.375 7.75 10.675 8.1875 10.9875 8.3125C11.875 7.5 12.9875 7.025 14.375 7.025C19.15 7.025 20.2 9.95 20.5125 12.7375C20.9 12.2875 21.6625 11.875 22.825 11.875H26.25C26.5875 11.875 26.9875 11.675 26.875 11.0375C25.2 6.075 20.525 2.5 15 2.5C13.3585 2.5 11.733 2.82332 10.2165 3.4515C8.69989 4.07969 7.3219 5.00043 6.16117 6.16117C5.00043 7.3219 4.07969 8.69989 3.45151 10.2165C2.82332 11.733 2.5 13.3585 2.5 15Z" fill="#CE1879"/>
</svg>
