<svg width="55" height="60" viewBox="0 0 55 60" fill="none" xmlns="http://www.w3.org/2000/svg">
<path d="M24.3714 22.252C22.2714 19.254 21.4811 17.0793 21.3098 15.496C21.1467 14.0039 21.5115 12.8157 22.2355 11.6745C23.0174 10.4394 24.1918 9.29263 25.6839 7.9359C27.0793 6.67036 28.8257 5.16442 30.1962 3.45952L25.8912 0C24.7417 1.42857 23.3269 2.61675 21.9729 3.84361C20.4974 5.18376 18.798 6.77812 17.5712 8.71789C16.2835 10.7488 15.4988 13.1694 15.8165 16.0956C16.126 18.9307 17.4413 21.9868 19.8453 25.4214L24.3714 22.252ZM27.8254 13.8795C28.6101 11.9895 30.2045 10.094 32.7439 7.92209L36.336 12.1166C34.0398 14.0868 33.2164 15.3026 32.9235 16.0044C32.6361 16.6952 32.8268 17.3833 33.0202 18.0686C33.2523 18.8865 33.6364 20.2515 33.6115 21.7215C33.5784 23.6723 32.9097 25.7337 31.3126 28.1321L26.7146 25.065C27.8807 23.3186 28.0741 22.2741 28.0851 21.6303C28.099 20.8152 27.8862 20.3592 27.5408 18.9776C27.2092 17.6568 26.9633 15.9464 27.8254 13.8795ZM11.4424 26.5985C12.7411 25.7309 14.3438 25.2888 15.8414 24.9296L14.551 19.5524C12.3045 20.094 10.2653 20.8235 8.71512 21.7823C7.30589 22.6555 5.5264 24.2111 5.5264 26.5985C5.5264 28.6046 6.86931 30.2073 8.4692 31.2573C8.34867 31.7755 8.2884 32.3058 8.28959 32.8378C8.28959 35.5458 9.44461 37.8309 11.4479 39.5248C11.1523 40.3537 11.0196 41.2766 11.0611 42.1996C8.91407 42.6168 6.81681 43.2302 5.06494 44.0343C3.87124 44.5814 2.69412 45.2805 1.77674 46.1813C0.853828 47.0904 0 48.4029 0 50.0857C0 51.2656 0.522245 52.2189 1.03344 52.8765C1.55568 53.5452 2.22714 54.1172 2.92346 54.6008C4.32164 55.5707 6.19509 56.4494 8.33657 57.1871C12.6416 58.6737 18.4747 59.7569 24.8688 59.7569C34.0619 59.7569 40.5168 58.6958 44.7362 57.5961C46.3395 57.1884 47.9127 56.6705 49.4447 56.0459C50.0249 55.8028 50.6052 55.5458 51.1468 55.2253C51.1744 55.2087 48.3062 50.4864 48.3173 50.4781C46.7588 51.2905 45.0346 51.8044 43.3435 52.2465C39.616 53.2192 33.6364 54.2305 24.8688 54.2305C19.055 54.2305 13.8353 53.2413 10.1409 51.9647C8.67091 51.4563 7.13458 50.8649 5.88285 49.9199C6.20062 49.6712 6.68417 49.37 7.36945 49.0578C8.91131 48.3504 11.0252 47.7702 13.2827 47.4248C13.9164 48.0971 14.6661 48.6866 15.5319 49.1932C18.1984 50.7461 21.8652 51.4673 26.2504 51.4673C29.8702 51.4673 32.4897 51.1026 34.2581 50.7102C35.2418 50.4947 36.231 50.2487 37.1374 49.8039C37.1457 49.7983 34.703 44.8439 34.703 44.8439C34.1669 45.0374 33.6207 45.1939 33.0644 45.3137C31.7132 45.6149 29.4999 45.9409 26.2504 45.9409C22.346 45.9409 19.7955 45.2778 18.3172 44.4184C17.1401 43.7331 16.6897 42.9705 16.5985 42.1415C18.997 42.8406 21.8348 43.1777 25.0429 43.1777C29.0854 43.1777 32.0006 42.7826 33.9625 42.3571C35.0291 42.1277 36.1039 41.8624 37.0959 41.401C37.1512 41.3734 34.7279 36.4079 34.7279 36.4079C34.0993 36.6433 33.4524 36.8263 32.7936 36.955C31.2462 37.2894 28.7234 37.6513 25.0401 37.6513C20.6107 37.6513 17.6624 36.9218 15.916 35.9299C14.6146 35.1893 14.0426 34.3604 13.8713 33.4706C17.2976 34.3714 21.622 34.8881 26.2504 34.8881C31.2711 34.8881 35.9271 34.2802 39.4668 33.2357L37.9028 27.9359C34.9904 28.7953 30.8843 29.3617 26.2504 29.3617C21.4866 29.3617 17.2838 28.7649 14.3631 27.8641C12.9815 27.4413 12.0254 26.9909 11.4452 26.5985M43.0783 28.6599C46.43 28.3559 47.6652 29.1794 48.0631 29.6049C48.4748 30.047 48.6185 30.7323 48.4389 31.4562C48.1183 32.7384 47.2148 33.9818 45.7503 35.1258C44.2885 36.267 42.4344 37.1705 40.5748 37.7923L42.3211 43.034C44.6091 42.2714 47.0683 41.1053 49.149 39.4833C51.2214 37.8641 53.0838 35.6563 53.7995 32.7964C54.3106 30.7516 54.1089 27.9857 52.1029 25.8331C50.0857 23.6723 46.8279 22.7687 42.5781 23.1556L43.0783 28.6599Z" fill="#252527"/>
</svg>
