<svg width="30" height="30" viewBox="0 0 30 30" fill="none" xmlns="http://www.w3.org/2000/svg">
<path d="M3.75 6.25C3.75 5.58696 4.01339 4.95107 4.48223 4.48223C4.95107 4.01339 5.58696 3.75 6.25 3.75H23.75C24.413 3.75 25.0489 4.01339 25.5178 4.48223C25.9866 4.95107 26.25 5.58696 26.25 6.25V23.75C26.25 24.413 25.9866 25.0489 25.5178 25.5178C25.0489 25.9866 24.413 26.25 23.75 26.25H6.25C5.58696 26.25 4.95107 25.9866 4.48223 25.5178C4.01339 25.0489 3.75 24.413 3.75 23.75L3.75 6.25ZM23.125 6.875H16.5C15.4192 6.875 14.3828 7.30433 13.6185 8.06854C12.8543 8.83275 12.425 9.86924 12.425 10.95C12.425 12.0125 13.075 13.25 14.05 13.85H12.6625V17.3375H23.125V13.85L16.9625 13.85C16 13.85 15.2125 13.075 15.2125 12.1125C15.2125 11.6484 15.3969 11.2033 15.7251 10.8751C16.0533 10.5469 16.4984 10.3625 16.9625 10.3625L23.125 10.3625V6.875ZM10.7 21.4C10.7 20.843 10.4788 20.3089 10.0849 19.9151C9.6911 19.5212 9.15695 19.3 8.6 19.3C7.4375 19.3 6.4875 20.2375 6.4875 21.4C6.4875 21.9603 6.71007 22.4976 7.10624 22.8938C7.50241 23.2899 8.03973 23.5125 8.6 23.5125C9.7625 23.5125 10.7 22.5625 10.7 21.4ZM23.125 19.6625H12.6625V23.125H23.125V19.6625Z" fill="#CE1879"/>
</svg>
