<svg width="30" height="30" viewBox="0 0 30 30" fill="none" xmlns="http://www.w3.org/2000/svg">
<path d="M4.26999 18.745C3.25749 19.46 2.80124 20.45 2.81249 21.5C2.82249 22.4962 3.24874 23.4662 3.81624 24.2762C4.39789 25.1024 5.13548 25.8069 5.98749 26.35C6.79874 26.8625 7.75749 27.2325 8.69374 27.1825C13.1975 26.9412 18.01 24.4075 21.5712 20.8487C25.1287 17.2925 27.6012 12.5437 27.1287 7.74874C27.0362 6.80874 26.5575 5.91999 25.9475 5.19374C25.3112 4.44257 24.5287 3.82885 23.6475 3.38999C22.7825 2.96499 21.785 2.71124 20.8137 2.85124C19.8012 2.99624 18.8962 3.56249 18.2962 4.60374C18.1711 4.81947 18.0419 5.03284 17.9087 5.24374C17.7925 5.43124 17.6662 5.63124 17.5212 5.87374C17.2158 6.36905 16.9572 6.89172 16.7487 7.43499C16.545 7.99374 16.4112 8.63249 16.5025 9.29749C16.5975 9.98624 16.9225 10.6262 17.505 11.18C17.955 11.6062 18.095 12.2337 17.84 13.1162C17.58 14.0137 16.935 15.0237 16.0625 15.9012C15.1925 16.7787 14.175 17.4425 13.2562 17.7262C12.3462 18.0062 11.6775 17.8825 11.2162 17.445C10.5937 16.8537 9.90124 16.5387 9.16874 16.4725C8.45624 16.4075 7.78624 16.585 7.20124 16.8387C6.32749 17.2187 5.45874 17.8637 4.78124 18.3687C4.61186 18.4957 4.44101 18.6207 4.26874 18.7437" fill="#CE1879"/>
</svg>
