<svg width="60" height="54" viewBox="0 0 60 54" fill="none" xmlns="http://www.w3.org/2000/svg">
<path d="M29.7044 21.3513C32.5505 21.3513 34.8716 23.6724 34.8716 26.5738C34.8716 29.337 32.5505 31.6857 29.7044 31.6857C26.8583 31.6857 24.5372 29.337 24.5372 26.5738C24.5372 23.6724 26.8583 21.3513 29.7044 21.3513ZM16.9108 48.6793C18.6516 49.7294 22.4648 48.1267 26.8583 43.9819C25.4214 42.3516 24.0122 40.5832 22.6859 38.7318C20.4593 38.5172 18.2457 38.1851 16.0542 37.7371C14.6449 43.6503 15.17 47.7122 16.9108 48.6793ZM18.8726 32.8186L18.0713 31.4094C17.7674 32.2107 17.4634 33.012 17.27 33.7857C18.016 33.9515 18.845 34.0897 19.7016 34.2278L18.8726 32.8186ZM36.944 30.7186L39.1821 26.5738L36.944 22.429C36.115 20.9645 35.2308 19.6658 34.4294 18.3671C32.9373 18.2842 31.3623 18.2842 29.7044 18.2842C28.0465 18.2842 26.4714 18.2842 24.9793 18.3671C24.178 19.6658 23.2938 20.9645 22.4648 22.429L20.2266 26.5738L22.4648 30.7186C23.2938 32.1831 24.178 33.4818 24.9793 34.7805C26.4714 34.8634 28.0465 34.8634 29.7044 34.8634C31.3623 34.8634 32.9373 34.8634 34.4294 34.7805C35.2308 33.4818 36.115 32.1831 36.944 30.7186ZM29.7044 12.1499C29.1794 12.7578 28.6267 13.3933 28.0741 14.1394H31.3347C30.782 13.3933 30.2294 12.7578 29.7044 12.1499ZM29.7044 40.9977C30.2294 40.3897 30.782 39.7542 31.3347 39.0081H28.0741C28.6267 39.7542 29.1794 40.3897 29.7044 40.9977ZM42.4703 4.46818C40.7572 3.41817 36.944 5.02082 32.5505 9.16562C33.9873 10.7959 35.3966 12.5643 36.7229 14.4157C38.9887 14.6367 41.2269 14.9683 43.3546 15.4104C44.7638 9.4972 44.2388 5.4353 42.4703 4.46818ZM40.5361 20.3289L41.3374 21.7382C41.6414 20.9368 41.9453 20.1355 42.1388 19.3618C41.3927 19.196 40.5637 19.0579 39.7071 18.9197L40.5361 20.3289ZM44.5427 0.848393C48.6046 3.16948 49.0468 9.27614 47.3336 16.4052C54.3521 18.4776 59.4087 21.904 59.4087 26.5738C59.4087 31.2436 54.3521 34.6699 47.3336 36.7423C49.0468 43.8714 48.6046 49.978 44.5427 52.2991C40.5085 54.6202 35.0097 51.9675 29.7044 46.9109C24.399 51.9675 18.9003 54.6202 14.8384 52.2991C10.8041 49.978 10.362 43.8714 12.0752 36.7423C5.05665 34.6699 0 31.2436 0 26.5738C0 21.904 5.05665 18.4776 12.0752 16.4052C10.362 9.27614 10.8041 3.16948 14.8384 0.848393C18.9003 -1.47269 24.399 1.17998 29.7044 6.23663C35.0097 1.17998 40.5085 -1.47269 44.5427 0.848393ZM43.7414 26.5738C44.6809 28.6462 45.5099 30.7186 46.2007 32.8186C52.0034 31.0778 55.2639 28.5909 55.2639 26.5738C55.2639 24.5566 52.0034 22.0697 46.2007 20.3289C45.5099 22.429 44.6809 24.5014 43.7414 26.5738ZM15.6673 26.5738C14.7278 24.5014 13.8989 22.429 13.2081 20.3289C7.40537 22.0697 4.1448 24.5566 4.1448 26.5738C4.1448 28.5909 7.40537 31.0778 13.2081 32.8186C13.8989 30.7186 14.7278 28.6462 15.6673 26.5738ZM40.5361 32.8186L39.7071 34.2278C40.5637 34.0897 41.3927 33.9515 42.1388 33.7857C41.9453 33.012 41.6414 32.2107 41.3374 31.4094L40.5361 32.8186ZM32.5505 43.9819C36.944 48.1267 40.7572 49.7294 42.4703 48.6793C44.2388 47.7122 44.7638 43.6503 43.3546 37.7371C41.2269 38.1792 38.9887 38.5108 36.7229 38.7318C35.3966 40.5832 33.9873 42.3516 32.5505 43.9819ZM18.8726 20.3289L19.7016 18.9197C18.845 19.0579 18.016 19.196 17.27 19.3618C17.4634 20.1355 17.7674 20.9368 18.0713 21.7382L18.8726 20.3289ZM26.8583 9.16562C22.4648 5.02082 18.6516 3.41817 16.9108 4.46818C15.17 5.4353 14.6449 9.4972 16.0542 15.4104C18.2457 14.9624 20.4593 14.6303 22.6859 14.4157C24.0122 12.5643 25.4214 10.7959 26.8583 9.16562Z" fill="#252527"/>
</svg>
