<svg width="56" height="56" viewBox="0 0 56 56" fill="none" xmlns="http://www.w3.org/2000/svg">
<path d="M50.304 39.8481C43.4817 48.9362 28.9141 45.8691 19.5717 46.3084C19.5717 46.3084 17.9166 46.4024 16.2531 46.6759C16.2531 46.6759 16.8831 46.4079 17.6872 46.1288C24.2471 43.8602 27.3474 43.4043 31.3347 41.3568C38.8229 37.5215 46.278 29.1628 47.795 20.4808C44.9434 28.8312 36.2725 36.0183 28.378 38.9362C22.976 40.9312 13.2026 42.871 13.1998 42.871L12.8047 42.661C6.15917 39.4281 5.96575 25.0318 18.0382 20.3924C23.3324 18.3587 28.3919 19.475 34.1144 18.1128C40.2156 16.6621 47.2838 12.089 50.1548 6.10943C53.3739 15.6646 57.2424 30.6079 50.304 39.8481ZM50.4201 3.15281C49.6485 5.00359 48.6607 6.75659 47.4773 8.37525C44.9054 5.72412 41.8272 3.61666 38.4253 2.17795C35.0233 0.739239 31.3671 -0.00139474 27.6734 1.9718e-06C12.4123 1.9718e-06 4.9599e-06 12.4123 4.9599e-06 27.6707C-0.00227772 31.4768 0.783379 35.2423 2.30752 38.73C3.83166 42.2177 6.06129 45.3521 8.85605 47.936L9.46396 48.472C9.02086 48.0282 8.77217 47.4266 8.77256 46.7994C8.77295 46.1723 9.02239 45.5709 9.46603 45.1277C9.90967 44.6844 10.5112 44.4355 11.1383 44.4356C11.7655 44.4357 12.3669 44.6849 12.8104 45.1284C13.2538 45.5718 13.503 46.1732 13.5032 46.8004C13.5033 47.4275 13.2543 48.0291 12.8111 48.4727C12.3678 48.9164 11.7665 49.1658 11.1393 49.1662C10.5122 49.1666 9.91055 48.9179 9.46672 48.4748L9.87844 48.8395C14.8533 53.0455 21.1589 55.3503 27.6734 55.3441C42.2576 55.3441 54.236 43.9929 55.2612 29.6685C56.0183 22.6527 53.9459 13.7441 50.4201 3.15281Z" fill="#252527"/>
</svg>
