<svg width="49" height="50" viewBox="0 0 49 50" fill="none" xmlns="http://www.w3.org/2000/svg">
<path d="M44.1891 0H4.78033C2.14148 0 0 2.17464 0 4.8577V44.8799C0 47.5602 2.14148 49.7376 4.78033 49.7376H44.1891C46.8307 49.7376 48.9694 47.5629 48.9694 44.8799V4.8577C48.9694 2.1774 46.8307 0 44.1891 0ZM28.4057 27.5878H22.2852V45.3662H17.4081V27.5878H11.2849V23.606H28.4057V27.5878ZM44.1891 42.1692C43.805 43.0451 43.1473 43.6944 42.3709 44.2112C41.5475 44.7203 40.6413 45.0813 39.6933 45.2778C38.624 45.5028 37.5338 45.614 36.441 45.6093C35.3186 45.6128 34.1983 45.511 33.0948 45.3054C32.1312 45.1358 31.1969 44.8287 30.3206 44.3935V39.7265L30.1382 39.58L30.3206 39.5386V39.7265C31.1329 40.3841 32.0282 40.8861 33.0064 41.2324C33.9652 41.5999 35.0152 41.7851 36.068 41.7851C36.7367 41.7851 37.2451 41.727 37.6955 41.6193C38.1002 41.5271 38.4874 41.3703 38.8423 41.1551C39.1248 40.9839 39.3588 40.7432 39.522 40.456C39.6909 40.1366 39.767 39.7762 39.7416 39.4158C39.7162 39.0554 39.5903 38.7093 39.3783 38.4167C39.1201 38.0513 38.7958 37.7374 38.4223 37.4911C37.9716 37.1722 37.4903 36.8991 36.9854 36.6759C36.4134 36.4134 35.8304 36.1399 35.17 35.8691C33.5425 35.0926 32.2603 34.3162 31.4397 33.244C30.6079 32.2769 30.1962 31.0114 30.1962 29.5552C30.1962 28.3891 30.4173 27.4551 30.8649 26.64C31.3429 25.7668 31.9066 25.1258 32.6831 24.6007C33.4485 24.0675 34.3079 23.6778 35.3606 23.4347C36.4107 23.1915 37.4662 23.0672 38.6129 23.0672C39.7597 23.0672 40.7185 23.1335 41.5778 23.2689C42.4372 23.407 43.2413 23.6198 43.968 23.9017V28.4665C43.6101 28.2041 43.2258 27.98 42.8213 27.7978C41.9656 27.4265 41.0642 27.171 40.141 27.0379C39.7294 26.9763 39.3137 26.9458 38.8975 26.9467C38.3838 26.9398 37.871 26.9927 37.3695 27.1042C36.9636 27.1852 36.5747 27.3357 36.22 27.5491C35.931 27.7217 35.6853 27.9579 35.5016 28.2399C35.3306 28.51 35.2413 28.8238 35.2446 29.1434C35.2446 29.5008 35.3404 29.8241 35.532 30.1133C35.7217 30.3933 35.9934 30.666 36.3471 30.9312C36.6621 31.1827 37.0932 31.4369 37.5905 31.6884C38.1625 31.9398 38.6792 32.194 39.312 32.4565C40.1714 32.824 40.9368 33.233 41.6055 33.6226C42.2769 34.0094 42.8406 34.4654 43.3269 34.9821C43.8437 35.4656 44.2167 36.0514 44.4764 36.7312C44.7362 37.4109 44.8688 38.1763 44.8688 39.0606C44.8688 40.3233 44.5704 41.296 44.1891 42.1692Z" fill="#252527"/>
</svg>
